<svg xmlns="http://www.w3.org/2000/svg" xmlns:xlink="http://www.w3.org/1999/xlink" width="1212.28" height="671.068" viewBox="0 0 1212.28 671.068">
  <defs>
    <style>
      .cls-1 {
        fill: url(#linear-gradient);
      }

      .cls-10, .cls-14, .cls-15, .cls-17, .cls-18, .cls-19, .cls-2, .cls-24, .cls-26, .cls-27, .cls-3, .cls-5, .cls-8, .cls-9 {
        fill: none;
      }

      .cls-10, .cls-11, .cls-12, .cls-13, .cls-14, .cls-15, .cls-16, .cls-18, .cls-2, .cls-20, .cls-21, .cls-24, .cls-26, .cls-27, .cls-3, .cls-5, .cls-7, .cls-8, .cls-9 {
        stroke: #263238;
      }

      .cls-10, .cls-11, .cls-12, .cls-13, .cls-14, .cls-15, .cls-16, .cls-17, .cls-18, .cls-19, .cls-2, .cls-20, .cls-21, .cls-24, .cls-26, .cls-27, .cls-3, .cls-5, .cls-7, .cls-8, .cls-9 {
        stroke-linecap: round;
      }

      .cls-10, .cls-11, .cls-12, .cls-13, .cls-14, .cls-15, .cls-16, .cls-17, .cls-18, .cls-19, .cls-2, .cls-20, .cls-21, .cls-24, .cls-26, .cls-3, .cls-7, .cls-8, .cls-9 {
        stroke-linejoin: round;
      }

      .cls-2, .cls-5 {
        stroke-width: 1.963px;
      }

      .cls-3 {
        stroke-width: 1.961px;
      }

      .cls-11, .cls-12, .cls-21, .cls-4 {
        fill: #263238;
      }

      .cls-6 {
        fill: #f0ae00;
      }

      .cls-13, .cls-16, .cls-20, .cls-23, .cls-7 {
        fill: #fff;
      }

      .cls-11, .cls-7 {
        stroke-width: 2.604px;
      }

      .cls-8 {
        stroke-width: 7.812px;
      }

      .cls-9 {
        stroke-width: 2.6px;
      }

      .cls-10 {
        stroke-width: 2.608px;
      }

      .cls-12, .cls-13, .cls-14, .cls-17, .cls-19 {
        stroke-width: 2.598px;
      }

      .cls-15, .cls-16 {
        stroke-width: 5.196px;
      }

      .cls-17 {
        stroke: #fff;
      }

      .cls-18 {
        stroke-width: 7.795px;
      }

      .cls-19 {
        stroke: #f0ae00;
      }

      .cls-20, .cls-21 {
        stroke-width: 2.597px;
      }

      .cls-22 {
        fill: #0169ee;
      }

      .cls-24 {
        stroke-width: 2.599px;
      }

      .cls-25 {
        fill: #a2a7a9;
      }

      .cls-26 {
        stroke-width: 2.595px;
      }

      .cls-27 {
        stroke-width: 3.728px;
      }
    </style>
    <linearGradient id="linear-gradient" x1="0.5" x2="0.5" y2="1" gradientUnits="objectBoundingBox">
      <stop offset="0" stop-color="#e9eaeb"/>
      <stop offset="1" stop-color="#fff" stop-opacity="0.529"/>
    </linearGradient>
  </defs>
  <g id="Group_318" data-name="Group 318" transform="translate(-710 -360.301)">
    <g id="Design" transform="translate(402.487 101.334)">
      <g id="Vector_Smart_Object" data-name="Vector Smart Object" transform="translate(400.528 423.682)">
        <g id="Vector_Smart_Object-2" data-name="Vector Smart Object" transform="translate(0 0)">
          <path id="Path_1056" data-name="Path 1056" class="cls-1" d="M1191.766,412.338s-21.049-96.961-139.245-151.146-262.3-39.924-322.207,19.964-55.051,165.405-118.2,162.554-87.433-78.425-174.866-29.945-42.1,114.073-48.574,155.424-80.956-22.815-140.864-5.7-87.433,65.591-80.957,94.11-22.668,64.166-22.668,64.166H1201.481S1217.672,536.392,1191.766,412.338Z" transform="translate(-144.189 -227.443)"/>
        </g>
      </g>
      <g id="Vector_Smart_Object-3" data-name="Vector Smart Object" transform="translate(1407.201 273.409)">
        <g id="Vector_Smart_Object-4" data-name="Vector Smart Object" transform="translate(0 0)">
          <g id="Group_274" data-name="Group 274" transform="translate(0 0)">
            <g id="Group_273" data-name="Group 273" transform="translate(0 9.238)">
              <g id="Group_267" data-name="Group 267">
                <path id="Path_1057" data-name="Path 1057" class="cls-2" d="M571.145,337.959H533.781a2.769,2.769,0,0,1-2.861-2.668V325.167a2.768,2.768,0,0,1,2.861-2.667h50.07a2.769,2.769,0,0,1,2.861,2.667v3.973" transform="translate(-530.92 -322.5)"/>
                <path id="Path_1058" data-name="Path 1058" class="cls-2" d="M589.011,358.276V336.618a3.6,3.6,0,0,1,3.72-3.47h49.589a3.6,3.6,0,0,1,3.72,3.47v25.936" transform="translate(-549.134 -326.348)"/>
                <path id="Path_1059" data-name="Path 1059" class="cls-2" d="M646.039,401.062v27.01a3.6,3.6,0,0,1-3.72,3.468H592.73a3.6,3.6,0,0,1-3.72-3.468V380.626" transform="translate(-549.134 -343.503)"/>
                <line id="Line_100" data-name="Line 100" class="cls-3" x2="49.958" transform="translate(43.397 19.458)"/>
                <line id="Line_101" data-name="Line 101" class="cls-3" x2="26.094" transform="translate(67.261 33.507)"/>
                <line id="Line_102" data-name="Line 102" class="cls-3" x2="19.793" transform="translate(43.397 33.507)"/>
                <line id="Line_103" data-name="Line 103" class="cls-3" x2="49.958" transform="translate(43.397 47.556)"/>
                <line id="Line_104" data-name="Line 104" class="cls-3" x2="8.953" transform="translate(84.402 61.605)"/>
                <line id="Line_105" data-name="Line 105" class="cls-3" x2="36.506" transform="translate(43.397 61.605)"/>
                <line id="Line_106" data-name="Line 106" class="cls-3" x2="49.958" transform="translate(43.397 75.654)"/>
                <line id="Line_107" data-name="Line 107" class="cls-3" x2="27.226" transform="translate(10.092 7.38)"/>
              </g>
              <g id="Group_272" data-name="Group 272" transform="translate(91.422 36.894)">
                <g id="Group_268" data-name="Group 268">
                  <path id="Path_1060" data-name="Path 1060" class="cls-4" d="M677.01,402.329a8.554,8.554,0,0,1-5.74-2.173l-5.32-4.921a1.693,1.693,0,0,1-.276-2.223,1.933,1.933,0,0,1,1.381-.828,2.011,2.011,0,0,1,1.564.469l1.05.918-5.35-10.273a1.976,1.976,0,0,1-.071-1.654,2.174,2.174,0,0,1,1.224-1.2,2.339,2.339,0,0,1,2.959,1.032l2.022,3.634a2.372,2.372,0,0,1,1.431-.767,3.215,3.215,0,0,1,2.11.566,2.359,2.359,0,0,1,1.5-.836,2.981,2.981,0,0,1,1.785.4,1.528,1.528,0,0,1,1.57-.879,2.168,2.168,0,0,1,1.737,1.062l3.777,6.48a7.348,7.348,0,0,1-2.5,9.718A8.643,8.643,0,0,1,677.01,402.329Zm-9.7-9.358a1.27,1.27,0,0,0-.139.008,1.073,1.073,0,0,0-.765.458.939.939,0,0,0,.152,1.23l5.316,4.918a7.787,7.787,0,0,0,9.484.623,6.58,6.58,0,0,0,2.248-8.7l-3.771-6.47a1.3,1.3,0,0,0-1.032-.644c-.351-.019-.727.059-.849.792l-.124.733-.59-.5a2.469,2.469,0,0,0-1.629-.556,1.7,1.7,0,0,0-1.163.828l-.279.413-.38-.334a2.653,2.653,0,0,0-1.78-.639,1.823,1.823,0,0,0-1.253.963l-.408.662-2.69-4.938a1.456,1.456,0,0,0-1.842-.643,1.357,1.357,0,0,0-.762.746,1.229,1.229,0,0,0,.044,1.029l7.271,14.069-4.336-3.786A1.1,1.1,0,0,0,667.305,392.97Z" transform="translate(-664.1 -380.267)"/>
                </g>
                <g id="Group_269" data-name="Group 269" transform="translate(5.851 5.231)">
                  <path id="Path_1061" data-name="Path 1061" class="cls-4" d="M675.03,393.6a.433.433,0,0,1-.4-.244l-1.976-4.342a.391.391,0,0,1,.226-.526.443.443,0,0,1,.564.212l1.978,4.343a.391.391,0,0,1-.227.525A.464.464,0,0,1,675.03,393.6Z" transform="translate(-672.623 -388.459)"/>
                </g>
                <g id="Group_270" data-name="Group 270" transform="translate(9.55 4.815)">
                  <path id="Path_1062" data-name="Path 1062" class="cls-4" d="M680.164,392.415a.431.431,0,0,1-.4-.245l-1.723-3.806a.391.391,0,0,1,.23-.525.441.441,0,0,1,.563.212l1.722,3.807a.391.391,0,0,1-.229.525A.462.462,0,0,1,680.164,392.415Z" transform="translate(-678.012 -387.807)"/>
                </g>
                <g id="Group_271" data-name="Group 271" transform="translate(12.995 4.459)">
                  <path id="Path_1063" data-name="Path 1063" class="cls-4" d="M685.118,391.381a.433.433,0,0,1-.389-.232l-1.659-3.33a.39.39,0,0,1,.209-.532.444.444,0,0,1,.571.195l1.659,3.33a.39.39,0,0,1-.21.532A.454.454,0,0,1,685.118,391.381Z" transform="translate(-683.031 -387.249)"/>
                </g>
              </g>
            </g>
            <path id="Path_1158" data-name="Path 1158" class="cls-5" d="M0,0,6.337.229,6.566,6.58.229,6.351Z" transform="translate(66.97 4.506) rotate(-45.001)"/>
            <path id="Path_1064" data-name="Path 1064" class="cls-2" d="M573.732,368.512a3.447,3.447,0,1,0-3.438,3.207A3.329,3.329,0,0,0,573.732,368.512Z" transform="translate(-542.187 -328.73)"/>
          </g>
        </g>
      </g>
      <rect id="Shape" width="1069.819" height="2.389" transform="translate(421.307 917.731)"/>
      <g id="Vector_Smart_Object-5" data-name="Vector Smart Object" transform="translate(307.513 672.118)">
        <g id="Vector_Smart_Object-6" data-name="Vector Smart Object" transform="translate(0 0)">
          <g id="Group_276" data-name="Group 276">
            <path id="Path_1068" data-name="Path 1068" class="cls-6" d="M384.432,881.554c5.23,2.117,18.021,1.851,18.031,1.851.132,0-2.751-7.767-2.992-8.237-2.806-5.446-11.683-14.438-18.9-13.534a8.031,8.031,0,0,0-6.923,10.026C374.844,876.3,379.977,879.747,384.432,881.554Z" transform="translate(-373.384 -827.157)"/>
            <path id="Path_1069" data-name="Path 1069" class="cls-6" d="M389.338,896.45c5.426.734,16.842-2.338,17.749-2.586a135,135,0,0,0,6.925,17.77c1.568,3.373,3.265,6.725,5.008,10.065-1.041-1.415-1.983-2.672-2.134-2.836-4.26-4.564-15.381-11.063-22.086-8.421a7.742,7.742,0,0,0-3.822,11.365c2.477,4.182,8.411,6.249,13.219,6.9,4.882.659,14.67-1.778,17.253-2.455.684,1.276,1.35,2.556,2.042,3.827,3.3,6.107,6.632,12.185,9.7,18.242,1.082,2.132,2.061,4.271,3.053,6.407-.927-1.256-1.718-2.306-1.858-2.455-4.256-4.564-15.377-11.064-22.086-8.421a7.743,7.743,0,0,0-3.821,11.365c2.479,4.182,8.411,6.249,13.221,6.9,4.657.631,13.714-1.544,16.786-2.334.941,2.215,1.89,4.433,2.7,6.62.514,1.5,1.124,2.919,1.545,4.457q.686,2.271,1.354,4.5c.748,2.888,1.538,5.865,2.19,8.7.47,1.968.879,3.852,1.295,5.749-1.048-2.135-3.2-6.276-3.422-6.6-3.462-5.111-13.393-13.1-20.455-11.428a7.887,7.887,0,0,0-5.634,10.7c1.766,4.482,7.291,7.359,11.94,8.678,5.117,1.451,16.449.126,17.863-.048.679,3.139,1.307,6.2,1.85,9.1,1.215,6.392,2.131,12.122,2.828,16.971h4.778c-.834-5.018-1.922-11-3.362-17.707-.675-3.193-1.466-6.589-2.315-10.071a97.081,97.081,0,0,0,9.967-4.347c3.729,3.747,13.287,8.133,14.525,8.689-1.3,2.967-2.6,5.842-3.867,8.534-2.643,5.643-5.153,10.646-7.37,14.9h5.166c1.906-3.923,4-8.391,6.182-13.343,1.336-3.007,2.7-6.246,4.062-9.582,1.37.265,12.587,2.379,17.815,1.284,4.739-.994,10.483-3.482,12.6-7.83a7.811,7.811,0,0,0-4.76-11.055c-6.907-2.152-17.453,5.124-21.316,9.982-.229.287-2.327,3.651-3.613,5.8.55-1.367,1.1-2.687,1.647-4.1,1.1-2.788,2.115-5.6,3.213-8.622q.715-2.214,1.445-4.473c.514-1.484.856-3.113,1.3-4.682.941-3.66,1.7-7.409,2.376-11.2,2.633.89,12.035,3.923,16.906,3.605,4.849-.316,10.931-1.968,13.737-5.967a7.69,7.69,0,0,0-2.9-11.6c-6.477-3.1-18.088,2.614-22.7,6.872-.288.265-3.226,3.665-4.8,5.562.386-2.283.784-4.559,1.093-6.882.9-6.7,1.581-13.512,2.3-20.3.216-2.081.461-4.15.7-6.224.934.326,12.024,4.157,17.481,3.8,4.848-.315,10.93-1.968,13.737-5.968a7.689,7.689,0,0,0-2.9-11.6c-6.477-3.1-18.088,2.613-22.7,6.87-.346.321-4.569,5.22-5.578,6.514.522-4.566,1.084-9.112,1.838-13.573a131.982,131.982,0,0,1,4.2-17.849c.434.152,11.992,4.2,17.579,3.834,4.849-.316,10.931-1.968,13.737-5.968a7.69,7.69,0,0,0-2.9-11.6c-6.478-3.1-18.088,2.614-22.7,6.872-.361.335-4.9,5.606-5.65,6.617.107-.338.179-.7.291-1.039a99.123,99.123,0,0,1,7.623-16.892c1.658-3.009,3.424-5.8,5.207-8.476,2.07.958,11.578,5.24,16.645,5.429,4.857.179,11.1-.843,14.361-4.531,3.2-3.612,2.869-9.129-1.506-11.822-6.071-3.739-18.289.755-23.377,4.516-.277.205-2.842,2.575-4.683,4.324.825-1.2,1.652-2.447,2.467-3.58,3.049-4.258,6.123-7.982,8.875-11.262,1.581-1.852,3.049-3.5,4.442-5.026,2.558-.04,12.871-.331,17.379-2.295,4.4-1.917,9.431-5.49,10.5-10.159a8.067,8.067,0,0,0-7.213-9.849c-7.245-.724-15.856,8.486-18.5,14-.229.477-2.885,8.312-2.751,8.31l.155,0c-1.373,1.443-2.824,3.007-4.374,4.745-2.835,3.231-6.005,6.9-9.165,11.117a140.934,140.934,0,0,0-9.5,14.041,100.619,100.619,0,0,0-8.118,16.952c-.025.068-.041.144-.066.214.038-1.98-.057-7.52-.116-7.944-.838-5.986-6.244-17.1-13.412-18.327a8.479,8.479,0,0,0-9.947,7.525c-.42,4.755,3.3,9.515,6.923,12.52,4.089,3.386,15.436,6.667,16.34,6.925a133.217,133.217,0,0,0-4.794,18.363c-.7,3.617-1.275,7.28-1.806,10.958-.027-1.713-.064-3.244-.1-3.458-.836-5.987-6.244-17.1-13.412-18.325a8.475,8.475,0,0,0-9.945,7.523c-.422,4.756,3.3,9.516,6.921,12.518,3.68,3.048,13.293,6.025,15.849,6.783-.188,1.411-.393,2.823-.573,4.236-.875,6.784-1.715,13.557-2.76,20.176-.366,2.334-.818,4.619-1.265,6.905-.025-1.519-.061-2.8-.088-3-.838-5.987-6.246-17.1-13.412-18.327a8.483,8.483,0,0,0-9.949,7.526c-.42,4.753,3.3,9.515,6.925,12.518,3.51,2.908,12.358,5.731,15.389,6.642-.53,2.329-1.059,4.665-1.688,6.9-.468,1.519-.8,3.009-1.363,4.51q-.78,2.241-1.545,4.443c-1.1,2.792-2.206,5.678-3.347,8.376-.779,1.88-1.559,3.661-2.338,5.456.393-2.318,1.063-6.872,1.072-7.258a29.35,29.35,0,0,0-4.49-15.111,8.766,8.766,0,0,0-.12-1.768,8.587,8.587,0,0,0-10.545-6.786c-7.043,1.738-11.51,13.2-11.842,19.231-.02.356.232,4.236.432,6.683-.355-1.421-.68-2.8-1.065-4.263-.739-2.889-1.568-5.752-2.445-8.837q-.721-2.212-1.459-4.47c-.452-1.5-1.136-3.033-1.7-4.568-1.391-3.532-2.988-7.049-4.682-10.558,2.726-.606,12.373-2.888,16.245-5.644s7.947-7.235,7.911-12.006a8.37,8.37,0,0,0-9.315-8.191c-7.246.731-13.534,11.436-14.848,17.348-.082.369-.511,4.708-.7,7.1-1.034-2.1-2.058-4.206-3.179-6.3-3.238-6.05-6.718-12.079-10.163-18.108-1.056-1.847-2.083-3.7-3.12-5.547.973-.207,12.5-2.689,16.842-5.775,3.855-2.745,7.945-7.235,7.909-12.008a8.369,8.369,0,0,0-9.315-8.189c-7.245.731-13.532,11.436-14.848,17.347-.1.446-.707,6.692-.777,8.285-2.281-4.072-4.515-8.154-6.541-12.258a134.9,134.9,0,0,1-7.114-17.039c.454-.094,12.5-2.634,16.943-5.8,3.856-2.744,7.947-7.235,7.909-12.006a8.368,8.368,0,0,0-9.315-8.189c-7.245.729-13.532,11.435-14.846,17.346-.1.466-.754,7.185-.777,8.409-.114-.336-.27-.676-.377-1.012a96.474,96.474,0,0,1-3.688-17.992c-.405-3.357-.591-6.587-.7-9.733,2.3-.26,12.773-1.552,17.111-3.989,4.16-2.336,8.756-6.382,9.284-11.128a8.21,8.21,0,0,0-8.288-9.089c-7.289-.013-14.805,9.988-16.813,15.729-.109.313-.841,3.6-1.336,6-.023-1.42-.077-2.886-.07-4.248.011-5.111.357-9.793.7-13.935.218-2.354.464-4.48.718-6.464,2.108-1.345,10.537-6.864,13.13-10.808,2.529-3.85,4.6-9.4,2.71-13.844a8.862,8.862,0,0,0-11.871-4.525c-6.475,3.1-8.179,15.194-7.107,21.146.093.513,2.538,8.406,2.649,8.338,0,0,.1-.065.127-.081-.286,1.907-.566,3.953-.823,6.2-.445,4.143-.9,8.829-1.034,13.961a131.831,131.831,0,0,0,.427,16.576,97.374,97.374,0,0,0,3.31,18.29c.021.071.052.143.073.212-1.147-1.672-4.521-6.243-4.824-6.566-4.256-4.566-15.377-11.064-22.084-8.423a7.743,7.743,0,0,0-3.822,11.365C378.6,893.732,384.53,895.8,389.338,896.45Z" transform="translate(-373.877 -807.687)"/>
            <path id="Path_1070" data-name="Path 1070" class="cls-6" d="M569.888,879.9c.113.065,2.327-7.886,2.406-8.4.895-5.977-1.159-18.018-7.721-20.959a8.829,8.829,0,0,0-11.733,4.821c-1.761,4.483.47,9.985,3.112,13.769C559.051,873.577,569.881,879.9,569.888,879.9Z" transform="translate(-429.454 -822.898)"/>
          </g>
        </g>
      </g>
      <g id="Vector_Smart_Object-7" data-name="Vector Smart Object" transform="translate(332.844 844.497)">
        <g id="Vector_Smart_Object-8" data-name="Vector Smart Object" transform="translate(0 0)">
          <g id="Group_283" data-name="Group 283">
            <g id="Group_278" data-name="Group 278" transform="translate(107.526 36.49)">
              <path id="Path_1071" data-name="Path 1071" class="cls-7" d="M677.244,1134.167H559.88c-10.4,0-18.827,7.866-18.827,17.569v1.93c0,9.7,8.429,17.57,18.827,17.57H677.244s-6.27-8.787-6.27-18.77S677.244,1134.167,677.244,1134.167Z" transform="translate(-485.338 -1134.167)"/>
              <path id="Path_1072" data-name="Path 1072" class="cls-7" d="M596.081,1134.167H478.717c-10.4,0-18.827,7.866-18.827,17.569v1.93c0,9.7,8.429,17.57,18.827,17.57H596.081s-6.27-8.787-6.27-18.77S596.081,1134.167,596.081,1134.167Z" transform="translate(-459.89 -1134.167)"/>
              <path id="Path_1073" data-name="Path 1073" class="cls-7" d="M459.89,1152.43v1.93a17.529,17.529,0,0,0,10.889,15.914l2.584.1v-32.8l-1.521-1.482C464.848,1138.651,459.89,1144.994,459.89,1152.43Z" transform="translate(-459.89 -1134.861)"/>
              <path id="Path_1074" data-name="Path 1074" class="cls-8" d="M651.8,1134.167H478.717c-10.4,0-18.827,7.866-18.827,17.569v1.93c0,9.7,8.429,17.57,18.827,17.57H651.8" transform="translate(-459.89 -1134.167)"/>
              <g id="Group_277" data-name="Group 277" transform="translate(14.059 8.175)">
                <line id="Line_116" data-name="Line 116" class="cls-9" x2="57.414"/>
                <line id="Line_117" data-name="Line 117" class="cls-9" x2="8.788" transform="translate(65.616 4.92)"/>
                <line id="Line_118" data-name="Line 118" class="cls-9" x2="46.868" transform="translate(11.131 4.92)"/>
                <line id="Line_119" data-name="Line 119" class="cls-9" x2="29.293" transform="translate(0 15.855)"/>
                <line id="Line_120" data-name="Line 120" class="cls-9" x2="6.444" transform="translate(87.878 21.868)"/>
                <line id="Line_121" data-name="Line 121" class="cls-9" x2="35.737" transform="translate(46.868 21.868)"/>
                <line id="Line_122" data-name="Line 122" class="cls-9" x2="25.192" transform="translate(11.131 21.868)"/>
              </g>
            </g>
            <g id="Group_280" data-name="Group 280" transform="translate(0 36.49)">
              <path id="Path_1075" data-name="Path 1075" class="cls-7" d="M486.48,1134.167h-164.4c-10.4,0-18.827,7.866-18.827,17.569v1.93c0,9.7,8.429,17.57,18.827,17.57h164.4s-6.268-8.787-6.268-18.77S486.48,1134.167,486.48,1134.167Z" transform="translate(-303.25 -1134.167)"/>
              <g id="Group_279" data-name="Group 279" transform="translate(83.247 5.832)">
                <line id="Line_123" data-name="Line 123" class="cls-10" y2="26.526"/>
                <line id="Line_124" data-name="Line 124" class="cls-9" x2="47.08" transform="translate(0.888 4.145)"/>
                <line id="Line_125" data-name="Line 125" class="cls-9" x2="64.846" transform="translate(0.888 10.776)"/>
                <line id="Line_126" data-name="Line 126" class="cls-9" x2="16.878" transform="translate(20.875 18.237)"/>
                <line id="Line_127" data-name="Line 127" class="cls-9" x1="50.633" transform="translate(8.439 23.21)"/>
              </g>
              <path id="Path_1076" data-name="Path 1076" class="cls-11" d="M378.311,1153.667v-1.93c0-9.7,8.429-17.569,18.827-17.569H322.077c-10.4,0-18.827,7.866-18.827,17.569v1.93c0,9.7,8.429,17.57,18.827,17.57h75.062C386.741,1171.236,378.311,1163.37,378.311,1153.667Z" transform="translate(-303.25 -1134.167)"/>
              <path id="Path_1077" data-name="Path 1077" class="cls-8" d="M477.833,1134.167H322.077c-10.4,0-18.827,7.866-18.827,17.569v1.93c0,9.7,8.429,17.57,18.827,17.57H477.833" transform="translate(-303.25 -1134.167)"/>
              <path id="Path_1078" data-name="Path 1078" class="cls-8" d="M524.472,1134.167h-92.4c-10.4,0-18.826,7.866-18.826,17.569v1.93c0,9.7,8.429,17.57,18.826,17.57h92.4" transform="translate(-337.738 -1134.167)"/>
            </g>
            <g id="Group_282" data-name="Group 282" transform="translate(88.865)">
              <path id="Path_1079" data-name="Path 1079" class="cls-7" d="M650.057,1077.032H532.693c-10.4,0-18.826,7.866-18.826,17.569v1.93c0,9.7,8.43,17.57,18.826,17.57H650.057s-6.27-8.789-6.27-18.77S650.057,1077.032,650.057,1077.032Z" transform="translate(-458.153 -1077.032)"/>
              <path id="Path_1080" data-name="Path 1080" class="cls-7" d="M568.894,1077.032H451.53c-10.4,0-18.826,7.866-18.826,17.569v1.93c0,9.7,8.429,17.57,18.826,17.57H568.894s-6.27-8.789-6.27-18.77S568.894,1077.032,568.894,1077.032Z" transform="translate(-432.704 -1077.032)"/>
              <path id="Path_1081" data-name="Path 1081" class="cls-7" d="M432.7,1095.295v1.93a17.529,17.529,0,0,0,10.889,15.914l2.583.1v-32.8l-1.521-1.482C437.663,1081.516,432.7,1087.858,432.7,1095.295Z" transform="translate(-432.704 -1077.725)"/>
              <path id="Path_1082" data-name="Path 1082" class="cls-8" d="M624.609,1077.032H451.53c-10.4,0-18.826,7.866-18.826,17.569v1.93c0,9.7,8.429,17.57,18.826,17.57H624.609" transform="translate(-432.704 -1077.032)"/>
              <g id="Group_281" data-name="Group 281" transform="translate(14.058 8.175)">
                <line id="Line_128" data-name="Line 128" class="cls-9" x2="57.414"/>
                <line id="Line_129" data-name="Line 129" class="cls-9" x2="8.788" transform="translate(65.616 4.92)"/>
                <line id="Line_130" data-name="Line 130" class="cls-9" x2="46.868" transform="translate(11.131 4.92)"/>
                <line id="Line_131" data-name="Line 131" class="cls-9" x2="29.293" transform="translate(0 15.855)"/>
                <line id="Line_132" data-name="Line 132" class="cls-9" x2="6.444" transform="translate(87.878 21.868)"/>
                <line id="Line_133" data-name="Line 133" class="cls-9" x2="35.737" transform="translate(46.868 21.868)"/>
                <line id="Line_134" data-name="Line 134" class="cls-9" x2="25.192" transform="translate(11.131 21.868)"/>
              </g>
            </g>
          </g>
        </g>
      </g>
      <g id="Vector_Smart_Object-9" data-name="Vector Smart Object" transform="translate(1309.739 792.823)">
        <g id="Vector_Smart_Object-10" data-name="Vector Smart Object" transform="translate(0 0)">
          <g id="Vector_Smart_Object-11" data-name="Vector Smart Object">
            <g id="Group_284" data-name="Group 284">
              <path id="Path_1083" data-name="Path 1083" class="cls-6" d="M1736.034,1028.222c3.147,1.273,10.841,1.111,10.846,1.111.079,0-1.654-4.665-1.8-4.948-1.687-3.271-7.025-8.671-11.37-8.127a4.823,4.823,0,0,0-4.162,6.021C1730.269,1025.068,1733.355,1027.137,1736.034,1028.222Z" transform="translate(-1729.391 -995.551)"/>
              <path id="Path_1084" data-name="Path 1084" class="cls-6" d="M1738.987,1037.168c3.262.441,10.129-1.4,10.676-1.552a80.951,80.951,0,0,0,4.164,10.673c.945,2.026,1.963,4.038,3.012,6.044-.625-.849-1.193-1.6-1.284-1.7-2.562-2.742-9.249-6.643-13.284-5.056a4.646,4.646,0,0,0-2.3,6.825c1.489,2.512,5.058,3.753,7.951,4.144,2.935.4,8.823-1.066,10.377-1.474.412.765.812,1.534,1.227,2.3,1.989,3.667,3.99,7.317,5.834,10.954.65,1.283,1.24,2.566,1.836,3.85-.557-.755-1.033-1.386-1.117-1.476-2.56-2.74-9.249-6.645-13.284-5.058a4.649,4.649,0,0,0-2.3,6.826c1.493,2.511,5.06,3.753,7.952,4.143,2.8.379,8.249-.927,10.1-1.4.567,1.329,1.137,2.662,1.622,3.975.309.9.676,1.754.929,2.677q.412,1.365.814,2.7c.451,1.735.925,3.522,1.318,5.224.282,1.183.528,2.314.778,3.454-.631-1.284-1.924-3.77-2.059-3.966-2.082-3.07-8.055-7.866-12.3-6.863a4.735,4.735,0,0,0-3.388,6.424c1.062,2.692,4.385,4.42,7.182,5.212,3.079.87,9.892.075,10.744-.03.408,1.885.787,3.723,1.114,5.464.729,3.838,1.281,7.281,1.7,10.194h2.872c-.5-3.015-1.155-6.6-2.021-10.636-.406-1.917-.882-3.956-1.392-6.048a59.2,59.2,0,0,0,5.994-2.61c2.243,2.249,7.992,4.883,8.737,5.217-.783,1.782-1.563,3.509-2.326,5.126-1.59,3.389-3.1,6.394-4.433,8.951h3.108c1.146-2.358,2.405-5.041,3.719-8.014.8-1.807,1.622-3.752,2.441-5.755.824.158,7.572,1.427,10.717.77,2.851-.6,6.305-2.091,7.582-4.7a4.69,4.69,0,0,0-2.865-6.64c-4.153-1.294-10.5,3.078-12.82,5.995-.138.173-1.4,2.193-2.174,3.481.331-.82.661-1.614.992-2.462.663-1.674,1.272-3.364,1.933-5.178q.428-1.33.868-2.687c.311-.892.515-1.87.781-2.812.566-2.2,1.022-4.451,1.428-6.73,1.584.534,7.239,2.358,10.169,2.166s6.574-1.181,8.263-3.583a4.616,4.616,0,0,0-1.742-6.966c-3.9-1.862-10.88,1.57-13.656,4.128-.172.158-1.94,2.2-2.888,3.341.233-1.373.472-2.74.659-4.135.539-4.025.95-8.116,1.379-12.194.131-1.249.277-2.494.419-3.738.562.2,7.232,2.5,10.514,2.283,2.917-.19,6.574-1.181,8.263-3.584a4.614,4.614,0,0,0-1.742-6.964c-3.9-1.862-10.88,1.569-13.654,4.126-.208.193-2.748,3.135-3.355,3.911.313-2.742.652-5.472,1.1-8.151a79,79,0,0,1,2.527-10.723c.26.093,7.212,2.522,10.573,2.3,2.916-.19,6.574-1.183,8.263-3.584a4.616,4.616,0,0,0-1.744-6.966c-3.9-1.862-10.878,1.569-13.654,4.126-.217.2-2.948,3.369-3.4,3.976.065-.2.108-.423.174-.626a59.637,59.637,0,0,1,4.586-10.146c1-1.807,2.061-3.482,3.133-5.089,1.245.576,6.964,3.148,10.011,3.261,2.921.107,6.675-.507,8.638-2.722a4.585,4.585,0,0,0-.906-7.1c-3.654-2.246-11,.454-14.062,2.714-.167.122-1.708,1.546-2.817,2.6.5-.719.993-1.469,1.484-2.15,1.832-2.557,3.682-4.795,5.337-6.765.952-1.111,1.834-2.1,2.673-3.018,1.54-.025,7.74-.2,10.453-1.379,2.646-1.151,5.673-3.3,6.312-6.1a4.843,4.843,0,0,0-4.336-5.915c-4.36-.436-9.539,5.1-11.13,8.409-.138.286-1.735,4.991-1.655,4.991l.094,0c-.826.867-1.7,1.805-2.632,2.85-1.7,1.94-3.611,4.146-5.511,6.677a84.48,84.48,0,0,0-5.716,8.434,60.414,60.414,0,0,0-4.884,10.18c-.015.042-.023.087-.04.128.023-1.19-.032-4.516-.07-4.77-.5-3.6-3.756-10.27-8.067-11.007a5.1,5.1,0,0,0-5.982,4.519c-.253,2.857,1.983,5.715,4.164,7.52,2.459,2.033,9.285,4,9.828,4.159a79.877,79.877,0,0,0-2.883,11.029c-.419,2.171-.767,4.37-1.087,6.582-.016-1.03-.038-1.95-.058-2.078-.5-3.6-3.756-10.267-8.067-11.006a5.1,5.1,0,0,0-5.982,4.519c-.253,2.857,1.983,5.715,4.164,7.518,2.213,1.83,8,3.619,9.531,4.073-.113.848-.235,1.7-.345,2.546-.526,4.073-1.031,8.142-1.66,12.117-.219,1.4-.492,2.774-.76,4.148-.016-.913-.038-1.684-.054-1.8-.5-3.6-3.756-10.269-8.065-11.006a5.1,5.1,0,0,0-5.983,4.519c-.253,2.855,1.983,5.715,4.164,7.518,2.111,1.747,7.433,3.442,9.257,3.99-.32,1.4-.638,2.8-1.015,4.146-.282.91-.483,1.805-.819,2.707q-.469,1.347-.931,2.669c-.659,1.677-1.326,3.411-2.014,5.031-.467,1.13-.937,2.2-1.4,3.278.235-1.393.638-4.128.645-4.361a17.619,17.619,0,0,0-2.7-9.074,5.265,5.265,0,0,0-.072-1.063,5.167,5.167,0,0,0-6.343-4.076c-4.236,1.045-6.923,7.931-7.123,11.551-.012.215.138,2.544.26,4.013-.214-.854-.409-1.684-.641-2.559-.446-1.735-.943-3.456-1.471-5.307q-.434-1.33-.878-2.685c-.271-.9-.683-1.822-1.022-2.744-.839-2.121-1.8-4.234-2.817-6.342,1.64-.363,7.442-1.734,9.772-3.389s4.778-4.345,4.757-7.21a5.031,5.031,0,0,0-5.6-4.92c-4.358.438-8.139,6.868-8.931,10.418-.048.221-.307,2.828-.418,4.263-.623-1.261-1.238-2.526-1.913-3.783-1.948-3.634-4.04-7.256-6.113-10.876-.634-1.11-1.252-2.221-1.877-3.331.585-.125,7.519-1.615,10.129-3.471,2.319-1.647,4.78-4.344,4.759-7.211a5.031,5.031,0,0,0-5.6-4.918c-4.358.438-8.139,6.868-8.931,10.418-.059.268-.426,4.02-.467,4.976-1.372-2.446-2.716-4.9-3.934-7.362a80.855,80.855,0,0,1-4.279-10.234c.273-.057,7.518-1.582,10.19-3.482,2.319-1.649,4.78-4.346,4.757-7.211a5.03,5.03,0,0,0-5.6-4.918c-4.358.438-8.139,6.868-8.93,10.418-.063.278-.452,4.314-.467,5.05-.068-.2-.164-.406-.228-.607a57.916,57.916,0,0,1-2.217-10.808c-.244-2.015-.356-3.955-.42-5.845,1.381-.156,7.685-.933,10.293-2.4,2.5-1.4,5.267-3.833,5.585-6.683a4.936,4.936,0,0,0-4.986-5.46c-4.383-.007-8.9,6-10.112,9.449-.066.188-.5,2.163-.8,3.605-.014-.854-.047-1.735-.043-2.552.007-3.07.216-5.881.424-8.369.129-1.414.278-2.69.431-3.883,1.268-.809,6.337-4.123,7.9-6.492,1.521-2.311,2.766-5.648,1.629-8.314a5.334,5.334,0,0,0-7.14-2.719c-3.893,1.865-4.918,9.126-4.273,12.7.056.31,1.527,5.05,1.593,5.008l.075-.048c-.171,1.145-.339,2.374-.5,3.722-.266,2.489-.542,5.3-.62,8.385a78.716,78.716,0,0,0,.255,9.954,58.478,58.478,0,0,0,1.992,10.986c.013.043.031.087.043.128-.69-1-2.719-3.75-2.9-3.945-2.562-2.742-9.249-6.645-13.284-5.058a4.649,4.649,0,0,0-2.3,6.826C1732.527,1035.536,1736.094,1036.779,1738.987,1037.168Z" transform="translate(-1729.687 -983.857)"/>
              <path id="Path_1085" data-name="Path 1085" class="cls-6" d="M1847.582,1027.231c.068.04,1.4-4.737,1.446-5.046.539-3.59-.7-10.823-4.644-12.59a5.315,5.315,0,0,0-7.057,2.9c-1.058,2.692.284,6,1.872,8.27C1841.063,1023.431,1847.576,1027.228,1847.582,1027.231Z" transform="translate(-1763.115 -992.994)"/>
            </g>
          </g>
        </g>
      </g>
      <g id="Vector_Smart_Object-12" data-name="Vector Smart Object" transform="translate(645.455 423.873)">
        <g id="Vector_Smart_Object-13" data-name="Vector Smart Object" transform="translate(0 0)">
          <g id="Group_299" data-name="Group 299">
            <g id="Group_287" data-name="Group 287" transform="translate(5.149 390.563)">
              <g id="Group_285" data-name="Group 285" transform="translate(67.412 12.698)">
                <path id="Path_1086" data-name="Path 1086" class="cls-12" d="M1151.18,1041.5a563.292,563.292,0,0,1,61.882-4.708c32-.488,42.494,1.465,50.362,3.9s14.9,22.975,4.566,42.485-46.535,35.619-95.849,31.714-84.462-13.181-103.348-26.36-2.1-20.5,18.887-31.241S1137.037,1040.835,1151.18,1041.5Z" transform="translate(-907.792 -1036.469)"/>
                <path id="Path_1087" data-name="Path 1087" class="cls-13" d="M1040.453,1086.44s73.446-37.587,99.152-44.42,55.083-8.3,68.725,0,10.492,35.146,4.2,45.4-57.182,31.729-85.512,39.54-139.023,7.321-169.452,9.762-103.873.976-114.365-4.394-4.2-11.226,11.016-14.643,65.577-3.418,89.184-9.764S1023.139,1094.739,1040.453,1086.44Z" transform="translate(-838.007 -1036.332)"/>
                <path id="Path_1088" data-name="Path 1088" class="cls-12" d="M1256.4,1103.453c3.067-5,5.38-13.933,5.375-22.745-19.017,14.019-48.631,30.624-89.58,44.231-38.831,12.9-148.782,24.455-194.254,28.826,9.044-.171,17.2-.506,23.5-1.011,30.429-2.441,141.122-1.953,169.451-9.762S1250.107,1113.7,1256.4,1103.453Z" transform="translate(-881.884 -1052.367)"/>
                <path id="Path_1089" data-name="Path 1089" class="cls-12" d="M1298.372,1115.656c7.79-3.077,15.573-6.4,22.68-9.723,1.566-7.182,3.422-28.272-13.187-68.937a172.864,172.864,0,0,0-30.5,5.264S1308.473,1075.369,1298.372,1115.656Z" transform="translate(-975.765 -1036.572)"/>
                <path id="Path_1090" data-name="Path 1090" class="cls-13" d="M968.65,1140.058c-9.877,1.83-18.787,3.6-25.252,5.342-23.607,6.346-73.97,6.346-89.184,9.764s-21.51,9.275-11.016,14.643,83.938,6.835,114.365,4.394c3.59-.289,8.309-.534,13.866-.76C959.3,1161.161,964.825,1146.83,968.65,1140.058Z" transform="translate(-838.007 -1073.813)"/>
              </g>
              <g id="Group_286" data-name="Group 286">
                <path id="Path_1091" data-name="Path 1091" class="cls-13" d="M890.049,1018.485s-47.739,5.37-71.872,7.323-67.674,20.013-76.593,37.587,17.836,38.564,33.051,42.957,60.856,14.157,86.037,12.692,99.678-21.966,112.794-25.871,36.2-13.181,36.2-13.181-22.034,0-59.281-17.572S907.361,1026.784,890.049,1018.485Z" transform="translate(-739.805 -1017.185)"/>
                <path id="Path_1092" data-name="Path 1092" class="cls-12" d="M809.37,1031.7s37.643-3.649,54.9,8.027,28.232,47.432,28.232,47.432l79.693-25.473s-5.975-5.906-20.875-22.69-58.818-26.269-84.7-21.161S809.37,1031.7,809.37,1031.7Z" transform="translate(-761.617 -1016.45)"/>
                <path id="Path_1093" data-name="Path 1093" class="cls-13" d="M1071.859,1122.376c1.537-.44,2.83-.815,3.774-1.1,13.115-3.906,36.2-13.181,36.2-13.181s-16.923,0-46.175-11.827C1069.831,1102.807,1073.982,1112.331,1071.859,1122.376Z" transform="translate(-841.974 -1045.294)"/>
                <path id="Path_1094" data-name="Path 1094" class="cls-12" d="M1014.924,1121.864a698.616,698.616,0,0,0-94.865,17.947c-45.36,11.945-100.038,7.687-126.54,4.467,16.9,4.608,59.847,13.525,83.993,12.121,25.182-1.464,99.678-21.966,112.794-25.871C997.345,1128.432,1007.252,1124.79,1014.924,1121.864Z" transform="translate(-756.647 -1054.541)"/>
              </g>
            </g>
            <g id="Group_288" data-name="Group 288" transform="translate(90.191 124.956)">
              <path id="Path_1095" data-name="Path 1095" class="cls-13" d="M1086.613,725.61l-10.774,98.665s5.1,23.743,8.505,33.24,6.806,24.8,5.1,26.38-2.836.528-14.743,3.694-26.083,22.16-44.229,29.547-32.888,3.694-49.9-2.639-48.766-44.847-55.57-45.9-27.217-4.222-35.724-6.86-18.712-13.717-18.712-13.717-1.7,0-1.7-5.8.567-6.331.567-6.331-4.535-3.694-5.67-8.442,10.774-30.074,10.774-45.9,8.505-75.45,8.505-82.837,11.908-8.969,24.383-13.719,78.25-27.436,79.384-33.767,5.671-50.651,5.671-50.651,35.285,35.117,39.692,37.988a36.651,36.651,0,0,1,8.505,7.386l-3.968,17.411s17.01,11.608,28.351,17.94,26.652,12.134,27.219,16.356" transform="translate(-863.691 -600.565)"/>
            </g>
            <path id="Path_1096" data-name="Path 1096" class="cls-14" d="M928.786,978.068a37.209,37.209,0,0,1,7.558,7.414" transform="translate(-793.91 -612.018)"/>
            <path id="Path_1097" data-name="Path 1097" class="cls-14" d="M871.235,975.387s16.288-10.514,32.575-4.315" transform="translate(-775.865 -608.783)"/>
            <g id="Group_289" data-name="Group 289" transform="translate(195.813 124.956)">
              <path id="Path_1098" data-name="Path 1098" class="cls-13" d="M1095.166,670.132c-5.811-3.782-10.209-6.782-10.209-6.782l3.968-17.411a36.648,36.648,0,0,0-8.505-7.386c-4.407-2.871-39.692-37.988-39.692-37.988s-4.537,44.319-5.671,50.651c-.367,2.053-7.555,5.831-17.5,10.156,1.735,10.181,7.963,27.167,29.976,33.635S1086.552,682.743,1095.166,670.132Z" transform="translate(-1017.556 -600.565)"/>
              <path id="Path_1099" data-name="Path 1099" class="cls-4" d="M1101.1,671.521l-.164-.113L1104.908,654a36.651,36.651,0,0,0-8.505-7.386c-2.5-1.63-14.958-13.656-25.259-23.747l-2.615,11.551S1068.56,667.6,1101.1,671.521Z" transform="translate(-1033.539 -608.622)"/>
            </g>
            <g id="Group_294" data-name="Group 294" transform="translate(166.552)">
              <path id="Path_1100" data-name="Path 1100" class="cls-12" d="M1036.113,421.01s-1.623-12.6-12.454-15.116S987.917,404.885,979.253,420s-2.167,26.706,1.083,28.722a37.3,37.3,0,0,0,5.957,3.022l2.707-12.6s1.084,11.087,8.666,13.606,23.285,0,23.285,0S1034.49,443.685,1036.113,421.01Z" transform="translate(-974.929 -404.909)"/>
              <path id="Path_1101" data-name="Path 1101" class="cls-12" d="M1207.84,500.6s19.279,11.608,19.279,23.216-23.816,15.828-23.816,15.828Z" transform="translate(-1046.535 -439.487)"/>
              <g id="Group_291" data-name="Group 291" transform="translate(49.27 56.413)">
                <path id="Path_1102" data-name="Path 1102" class="cls-13" d="M1163.365,500.294s-2.167,24.187-4.332,37.791-11.373,24.691-11.913,33.76-22.2,31.241-33.035,38.8-27.076,5.04-35.2-1.007-21.66-20.66-28.159-36.281-1.625-38.3,0-45.35,42.239-34.767,73.107-34.767S1163.365,500.294,1163.365,500.294Z" transform="translate(-1046.936 -493.239)"/>
                <path id="Path_1103" data-name="Path 1103" class="cls-14" d="M1161.667,592.65s2.167,18.14,2.167,19.651-4.874,6.047-13,1.512" transform="translate(-1079.354 -529.161)"/>
                <path id="Path_1104" data-name="Path 1104" class="cls-14" d="M1119.283,625.787s8.664,10.078,22.744,9.573" transform="translate(-1069.461 -541.135)"/>
                <g id="Group_290" data-name="Group 290" transform="translate(0 38.799)">
                  <path id="Path_1105" data-name="Path 1105" class="cls-15" d="M1141.55,563.091a71.137,71.137,0,0,0-40.614-7.054s-6.5,0-2.707,4.535c0,0-1.625,15.118,2.165,19.651s12.455,8.063,21.121,8.063S1138.843,578.711,1141.55,563.091Z" transform="translate(-1062.487 -554.525)"/>
                  <line id="Line_135" data-name="Line 135" class="cls-16" x1="35.2" y1="2.016"/>
                  <path id="Path_1106" data-name="Path 1106" class="cls-15" d="M1161.88,567.4l9.206,2.521s-3.79,18.644-1.623,23.682h0a11.676,11.676,0,0,0,8.09,6.608,45.192,45.192,0,0,0,8.7,1.454c4.332,0,13.538-8.062,15.7-22.17,0,0,2.707-1.007,1.625-2.519s-14.171-8.558-32.041-7.046" transform="translate(-1082.817 -558.836)"/>
                  <path id="Path_1107" data-name="Path 1107" class="cls-15" d="M1161.093,574.5s6.911.42,8.951,2.846" transform="translate(-1082.57 -561.402)"/>
                </g>
                <path id="Path_1108" data-name="Path 1108" class="cls-4" d="M1131.2,579.868c-.624,3.3-2.381,5.771-3.922,5.519s-2.286-3.133-1.662-6.434,2.381-5.772,3.923-5.518S1131.827,576.569,1131.2,579.868Z" transform="translate(-1071.378 -522.211)"/>
                <path id="Path_1159" data-name="Path 1159" class="cls-4" d="M5.45.043c3.025.058,5.5,1.239,5.522,2.638S8.566,5.167,5.541,5.108.044,3.869.019,2.471,2.425-.015,5.45.043Z" transform="matrix(0.268, -0.964, 0.964, 0.268, 92.895, 70.477)"/>
                <path id="Path_1109" data-name="Path 1109" class="cls-15" d="M1117.4,564.313s13.608-4.222,19.846,2.638" transform="translate(-1068.87 -518.457)"/>
                <path id="Path_1110" data-name="Path 1110" class="cls-15" d="M1182.651,578.877s6.239-5.277,11.341,2.111" transform="translate(-1089.33 -523.524)"/>
              </g>
              <g id="Group_293" data-name="Group 293" transform="translate(28.081 9.566)">
                <path id="Path_1111" data-name="Path 1111" class="cls-12" d="M1059.77,502.51s29.243-14.613,54.154-19.148,43.864-2.519,48.2-16.125-24.909-36.279-55.235-44.341-66.609.5-81.23,20.659-9.748,44.342-5.416,53.411,7.581,16.125,15.705,17.132S1059.77,502.51,1059.77,502.51Z" transform="translate(-1015.837 -419.888)"/>
                <g id="Group_292" data-name="Group 292" transform="translate(8.388 20.554)">
                  <path id="Path_1112" data-name="Path 1112" class="cls-17" d="M1045.4,524.225a31.2,31.2,0,0,0-7.894,6.08" transform="translate(-1031.018 -478.143)"/>
                  <path id="Path_1113" data-name="Path 1113" class="cls-17" d="M1156.791,470.478s7.9,4.408-15,13.223c-16.622,6.4-50.306,8.155-73.861,15.662" transform="translate(-1040.558 -458.722)"/>
                  <path id="Path_1114" data-name="Path 1114" class="cls-17" d="M1153.088,458.664a20.026,20.026,0,0,0,4.35-6.593" transform="translate(-1067.26 -452.071)"/>
                  <path id="Path_1115" data-name="Path 1115" class="cls-17" d="M1029.015,502.588s-7.105-9.55,17.371-16.161c17.654-4.769,43.111-6.48,58.895-14.507" transform="translate(-1028.056 -459.243)"/>
                </g>
              </g>
              <path id="Path_1116" data-name="Path 1116" class="cls-13" d="M1047.607,568.119s-4.3-19.651-13.511-19.651-10.442,9.071-6.758,20.156,9.829,14.612,15.355,11.085" transform="translate(-990.755 -456.783)"/>
            </g>
            <path id="Path_1117" data-name="Path 1117" class="cls-14" d="M947.315,941.136s2.269-2.638,2.269-11.08-6.238-36.407-9.072-55.927-5.671-56.984-5.671-72.812" transform="translate(-795.808 -548.149)"/>
            <path id="Path_1118" data-name="Path 1118" class="cls-14" d="M1036.247,924.752a54.157,54.157,0,0,0,4.671,6.113" transform="translate(-827.603 -592.752)"/>
            <path id="Path_1119" data-name="Path 1119" class="cls-14" d="M990.186,772.4s10.164,58.321,27.565,90.507" transform="translate(-813.161 -537.701)"/>
            <path id="Path_1120" data-name="Path 1120" class="cls-14" d="M1042.038,850.111c2.292,4.036,4.617,7.78,6.934,11.045" transform="translate(-829.419 -565.781)"/>
            <path id="Path_1121" data-name="Path 1121" class="cls-14" d="M1000.1,746.79s11.377,32.749,24.84,58.7" transform="translate(-816.269 -528.446)"/>
            <g id="Group_296" data-name="Group 296" transform="translate(13.612 331.863)">
              <path id="Path_1122" data-name="Path 1122" class="cls-13" d="M821.463,984.72s6.238,4.749,18.714,4.749,23.249-5.8,39.125-2.111,15.878,18.466,14.177,22.686-17.012,6.86-31.187,5.277-43.1-4.222-43.1-4.222S823.731,995.8,821.463,984.72Z" transform="translate(-773.16 -946.285)"/>
              <g id="Group_295" data-name="Group 295">
                <path id="Path_1123" data-name="Path 1123" class="cls-13" d="M792.467,963.727s1.313,5.495,8.528,9.157,9.841,13.428,9.841,18.923a23.492,23.492,0,0,1-1.313,8.546s-1.967,7.325-8.529,8.546-10.5,4.884-18.369-2.441S763.6,975.936,763.6,975.936l1.313-3.662a32.312,32.312,0,0,0,11.808-2.443C781.97,967.39,792.467,963.727,792.467,963.727Z" transform="translate(-755.728 -938.699)"/>
                <line id="Line_136" data-name="Line 136" class="cls-18" x2="45.267" y2="70.201"/>
                <path id="Path_1124" data-name="Path 1124" class="cls-13" d="M772.2,1030.515s5.249,4.884,14.433,4.884,18.369-5.494,13.777-7.325-7.874-3.662-11.154-2.441S772.2,1030.515,772.2,1030.515Z" transform="translate(-758.425 -960.925)"/>
                <path id="Path_1125" data-name="Path 1125" class="cls-13" d="M762.644,1019.166s3.936,10.376,7.218,11.6,17.057-1.832,20.993-4.273-2.623-6.716-8.528-6.716S762.644,1019.166,762.644,1019.166Z" transform="translate(-755.428 -958.732)"/>
                <path id="Path_1126" data-name="Path 1126" class="cls-13" d="M758.523,994.313s-2.625,12.819,2.623,15.873,25.587,4.273,27.554.609-5.249-5.493-12.465-8.546S758.523,994.313,758.523,994.313Z" transform="translate(-753.93 -949.751)"/>
                <path id="Path_1127" data-name="Path 1127" class="cls-13" d="M788.448,964.1s.656,23.808,3.282,26.249,8.528,3.052,9.841,1.221,2.623-22.587-1.313-29.3S788.448,964.1,788.448,964.1Z" transform="translate(-763.519 -937.242)"/>
                <path id="Path_1128" data-name="Path 1128" class="cls-13" d="M761.617,977.006s-8.528-1.832-8.528,6.1,11.808,12.819,17.057,13.43,11.154-1.22,6.561-4.884S765.553,980.057,761.617,977.006Z" transform="translate(-752.432 -943.431)"/>
              </g>
            </g>
            <g id="Group_298" data-name="Group 298" transform="translate(0 381.397)">
              <path id="Path_1129" data-name="Path 1129" class="cls-12" d="M858.614,1031.242l36.725-4.88s-4.723-6.346-16.788-6.346-19.411,5.368-20.986,7.321S858.614,1031.242,858.614,1031.242Z" transform="translate(-771.421 -1008.572)"/>
              <path id="Path_1130" data-name="Path 1130" class="cls-13" d="M937.212,1065.285l58.757-19.039s-14.164-27.824-40.921-37.587-66.444-7.25-83.231-1.392l6.114,6.274s12.067.488,25.182,14.643,26.231,36.611,26.231,36.611Z" transform="translate(-776.047 -1002.098)"/>
              <g id="Group_297" data-name="Group 297" transform="translate(124.508 3.92)">
                <path id="Path_1131" data-name="Path 1131" class="cls-19" d="M913.681,1014.306s23.329-3.1,47.771,45.486" transform="translate(-913.681 -1010.414)"/>
                <path id="Path_1132" data-name="Path 1132" class="cls-19" d="M930.428,1010.956s23.331-3.1,47.773,45.484" transform="translate(-918.932 -1009.204)"/>
                <path id="Path_1133" data-name="Path 1133" class="cls-19" d="M944.5,1008.275s23.329-3.1,47.771,45.486" transform="translate(-923.344 -1008.235)"/>
              </g>
              <path id="Path_1134" data-name="Path 1134" class="cls-13" d="M737.132,1060.9s26.231-36.121,75.02-33.192l7.344-.977s4.723-10.25,18.362-7.809,48.79,52.719,48.79,52.719l6.82-4.393s-18.56-29.261-32.726-45.857-32.669-16.029-38.608-9.948c-3.633,3.717-8.6,12.126-8.6,12.126s-5.447-7.662-21.585-4.225c-19.832,4.225-30.762,12.436-36.4,18.1-8.2,8.241-24.736,19.445-23.14,18.578Z" transform="translate(-732.303 -1004.063)"/>
              <path id="Path_1135" data-name="Path 1135" class="cls-13" d="M957.146,1094.656l62.429-20.014,3.148-3.417-58.757,19.038Z" transform="translate(-802.802 -1027.077)"/>
            </g>
          </g>
          <g id="Group_301" data-name="Group 301" transform="translate(302.907 214.384)">
            <path id="Path_1136" data-name="Path 1136" class="cls-13" d="M1178.975,740.591s22.523,7.235,25.926,18.315,20.265,71.647,24.8,80.616,14.742,14.245,14.742,21.1.567,12.134.567,12.134,11.908.528,13.042,9.5,3.4,20.577,3.4,20.577l45.374,65.314s27.067,2.028,33.3,1.5,24.777.579,31.549,3.9c2.625,1.284,7.844,5.473,11.944,18.906,2.037,6.676,6.547,19.6,3.711,19.074s-6.32-7.872-7.455-9.454-4.453-10.6-4.453-10.6,2.269,15.3,2.836,18.466a11.09,11.09,0,0,1-1.134,6.331l-.241.091a14.707,14.707,0,0,1-8.769.5l-2.331-.587h0a9.994,9.994,0,0,1-7.112.7l-2.527-.7s-3.681-10.838-7.082-15.06-14.095-8.8-14.095-8.8,11.537,12.252,10.97,20.166c-.23,3.2.567,5.8-2.269,4.222s-6.237-9.5-12.475-12.136-20.98-6.331-26.65-9.5-14.744-14.772-14.744-14.772l-74.282-62.26s-7.371-6.858-8.505-10.552l-1.134-3.694s-10.207-5.8-13.042-8.969-3.968-10.025-3.968-10.025l-15.311-16.356,10.207-90.223" transform="translate(-1173.566 -740.591)"/>
            <path id="Path_1137" data-name="Path 1137" class="cls-13" d="M1177.989,799.217l-4.423,69.324,15.311,16.356s1.134,6.859,3.968,10.025,13.042,8.969,13.042,8.969l1.134,3.694c1.134,3.694,8.505,10.552,8.505,10.552l11.118,9.318c4.519-8.2,15.254-22.982,34.672-25.355-.508-2.653-2.3-12.194-3.262-19.842-1.134-8.969-13.042-9.5-13.042-9.5s-.567-5.275-.567-12.134-10.207-12.135-14.742-21.1-21.4-69.536-24.8-80.616-25.926-18.315-25.926-18.315" transform="translate(-1173.566 -740.591)"/>
            <path id="Path_1138" data-name="Path 1138" class="cls-4" d="M1177.1,865.212l7.472,59.3-11-10.938Z" transform="translate(-1173.566 -785.622)"/>
            <g id="Group_300" data-name="Group 300" transform="translate(22.682 131.629)">
              <path id="Path_1139" data-name="Path 1139" class="cls-14" d="M1255.428,960.426c1.566-1.022,3.246-2.02,5.045-2.969" transform="translate(-1221.915 -950.584)"/>
              <path id="Path_1140" data-name="Path 1140" class="cls-14" d="M1228.91,983.662s3.54-7.486,12.557-15.013" transform="translate(-1213.6 -954.628)"/>
              <path id="Path_1141" data-name="Path 1141" class="cls-14" d="M1246.927,947.163a43.618,43.618,0,0,1,7.48-.453" transform="translate(-1219.25 -946.695)"/>
              <path id="Path_1142" data-name="Path 1142" class="cls-14" d="M1206.608,961.385a59.835,59.835,0,0,1,18.828-10.579" transform="translate(-1206.608 -948.18)"/>
            </g>
            <path id="Path_1143" data-name="Path 1143" class="cls-14" d="M1406.384,1136.084s-6.238-7.914-14.744-8.442" transform="translate(-1241.942 -880.45)"/>
            <path id="Path_1144" data-name="Path 1144" class="cls-14" d="M1417.247,1113.6s6.806,1.583,15.311,11.608,10.774,24.8,10.774,24.8" transform="translate(-1249.971 -875.375)"/>
            <path id="Path_1145" data-name="Path 1145" class="cls-14" d="M1440.9,1110.293s12.684,9.5,14.952,18.466,5.1,21.1,5.1,21.1" transform="translate(-1257.387 -874.181)"/>
            <path id="Path_1146" data-name="Path 1146" class="cls-14" d="M1464.01,1123.873s-2.269-9.5-7.938-16.885" transform="translate(-1262.144 -872.987)"/>
          </g>
          <g id="Group_302" data-name="Group 302" transform="translate(385.695 353.391)">
            <path id="Path_1147" data-name="Path 1147" class="cls-13" d="M1646.442,1091.206h-156.5l43.095-132.96h156.5Z" transform="translate(-1355.551 -958.246)"/>
            <path id="Path_1148" data-name="Path 1148" class="cls-12" d="M1655.729,1102.694l36.514-112.655c-46.214,5.32-73.4,40.733-116.15,79.584-26.9,24.45-45.577,31.475-56.533,33.071Z" transform="translate(-1364.839 -969.734)"/>
            <ellipse id="Ellipse_57" data-name="Ellipse 57" class="cls-13" cx="12.384" cy="11.08" rx="12.384" ry="11.08" transform="translate(228.04 49.069)"/>
            <rect id="Rectangle_115" data-name="Rectangle 115" class="cls-13" width="292.592" height="8.442" transform="translate(0 132.432)"/>
            <rect id="Rectangle_116" data-name="Rectangle 116" class="cls-12" width="149.698" height="8.442" transform="translate(142.894 132.432)"/>
          </g>
        </g>
      </g>
      <g id="Vector_Smart_Object-14" data-name="Vector Smart Object" transform="translate(1042.707 413.653)">
        <g id="Vector_Smart_Object-15" data-name="Vector Smart Object" transform="translate(0 0)">
          <g id="Group_317" data-name="Group 317">
            <rect id="Rectangle_117" data-name="Rectangle 117" class="cls-6" width="346.137" height="290.08" transform="translate(0 14.918)"/>
            <g id="Group_316" data-name="Group 316" transform="translate(19.541)">
              <rect id="Rectangle_118" data-name="Rectangle 118" class="cls-20" width="348.88" height="291.33"/>
              <rect id="Rectangle_119" data-name="Rectangle 119" class="cls-21" width="256.98" height="39.527" transform="translate(91.9)"/>
              <rect id="Rectangle_120" data-name="Rectangle 120" class="cls-20" width="348.88" height="20.554"/>
              <g id="Group_304" data-name="Group 304" transform="translate(15.317 67.987)">
                <rect id="Rectangle_121" data-name="Rectangle 121" class="cls-21" width="212.732" height="126.487"/>
                <rect id="Rectangle_122" data-name="Rectangle 122" class="cls-20" width="212.732" height="14.09" transform="translate(0 112.397)"/>
                <rect id="Rectangle_123" data-name="Rectangle 123" class="cls-20" width="212.732" height="4.111" transform="translate(0 117.387)"/>
                <g id="Group_303" data-name="Group 303" transform="translate(60.38 21.821)">
                  <path id="Path_1160" data-name="Path 1160" class="cls-22" d="M29.143.4C45.552.932,59.289,15.121,59.825,32.087S47.494,62.371,31.085,61.834.939,47.109.4,30.143,12.734-.141,29.143.4Z" transform="matrix(0.523, -0.852, 0.853, 0.522, 0, 50.219)"/>
                  <path id="Path_1149" data-name="Path 1149" class="cls-23" d="M1488.872,586.687l-27.256-14.619v29.239Z" transform="translate(-1428.426 -545.253)"/>
                </g>
              </g>
              <g id="Group_306" data-name="Group 306" transform="translate(247.148 67.987)">
                <rect id="Rectangle_124" data-name="Rectangle 124" class="cls-21" width="84.004" height="49.948"/>
                <rect id="Rectangle_125" data-name="Rectangle 125" class="cls-20" width="84.004" height="5.564" transform="translate(0 44.384)"/>
                <rect id="Rectangle_126" data-name="Rectangle 126" class="cls-20" width="84.004" height="1.623" transform="translate(0 46.354)"/>
                <g id="Group_305" data-name="Group 305" transform="translate(28.173 13.237)">
                  <ellipse id="Ellipse_59" data-name="Ellipse 59" class="cls-22" cx="12.371" cy="11.493" rx="12.371" ry="11.493"/>
                  <path id="Path_1150" data-name="Path 1150" class="cls-23" d="M1727.617,531.759l-10.763-5.773v11.546Z" transform="translate(-1708.079 -520.017)"/>
                </g>
              </g>
              <g id="Group_308" data-name="Group 308" transform="translate(247.148 122.871)">
                <rect id="Rectangle_127" data-name="Rectangle 127" class="cls-21" width="84.004" height="49.948"/>
                <rect id="Rectangle_128" data-name="Rectangle 128" class="cls-20" width="84.004" height="5.564" transform="translate(0 44.384)"/>
                <rect id="Rectangle_129" data-name="Rectangle 129" class="cls-20" width="84.004" height="1.623" transform="translate(0 46.354)"/>
                <g id="Group_307" data-name="Group 307" transform="translate(28.174 13.238)">
                  <path id="Path_1151" data-name="Path 1151" class="cls-22" d="M1728.811,614.071c0-6.347-5.538-11.492-12.37-11.492s-12.37,5.145-12.37,11.492,5.538,11.492,12.37,11.492S1728.811,620.418,1728.811,614.071Z" transform="translate(-1704.071 -602.579)"/>
                  <path id="Path_1152" data-name="Path 1152" class="cls-23" d="M1727.617,617.7l-10.763-5.773v11.546Z" transform="translate(-1708.08 -605.955)"/>
                </g>
              </g>
              <g id="Group_310" data-name="Group 310" transform="translate(247.148 177.755)">
                <rect id="Rectangle_130" data-name="Rectangle 130" class="cls-21" width="84.004" height="49.948"/>
                <rect id="Rectangle_131" data-name="Rectangle 131" class="cls-20" width="84.004" height="5.564" transform="translate(0 44.384)"/>
                <rect id="Rectangle_132" data-name="Rectangle 132" class="cls-20" width="84.004" height="1.623" transform="translate(0 46.354)"/>
                <g id="Group_309" data-name="Group 309" transform="translate(28.174 13.236)">
                  <path id="Path_1153" data-name="Path 1153" class="cls-22" d="M1728.811,700.008c0-6.349-5.538-11.494-12.37-11.494s-12.37,5.145-12.37,11.494,5.538,11.492,12.37,11.492S1728.811,706.355,1728.811,700.008Z" transform="translate(-1704.071 -688.514)"/>
                  <path id="Path_1154" data-name="Path 1154" class="cls-23" d="M1727.617,703.634l-10.763-5.773v11.546Z" transform="translate(-1708.08 -691.892)"/>
                </g>
              </g>
              <g id="Group_312" data-name="Group 312" transform="translate(247.148 232.64)">
                <rect id="Rectangle_133" data-name="Rectangle 133" class="cls-21" width="84.004" height="49.948"/>
                <rect id="Rectangle_134" data-name="Rectangle 134" class="cls-20" width="84.004" height="5.564" transform="translate(0 44.384)"/>
                <rect id="Rectangle_135" data-name="Rectangle 135" class="cls-20" width="84.004" height="1.623" transform="translate(0 46.354)"/>
                <g id="Group_311" data-name="Group 311" transform="translate(28.174 13.237)">
                  <path id="Path_1155" data-name="Path 1155" class="cls-22" d="M1728.811,785.945c0-6.347-5.538-11.492-12.37-11.492s-12.37,5.145-12.37,11.492,5.538,11.494,12.37,11.494S1728.811,792.293,1728.811,785.945Z" transform="translate(-1704.071 -774.453)"/>
                  <path id="Path_1156" data-name="Path 1156" class="cls-23" d="M1727.617,789.572l-10.763-5.773v11.546Z" transform="translate(-1708.08 -777.83)"/>
                </g>
              </g>
              <line id="Line_137" data-name="Line 137" class="cls-24" x2="162.908" transform="translate(16.972 207.826)"/>
              <g id="Group_313" data-name="Group 313" transform="translate(16.972 243.584)">
                <line id="Line_138" data-name="Line 138" class="cls-24" x2="96.782"/>
                <line id="Line_139" data-name="Line 139" class="cls-24" x2="96.782" transform="translate(0 14.137)"/>
                <line id="Line_140" data-name="Line 140" class="cls-24" x2="96.782" transform="translate(0 28.274)"/>
              </g>
              <g id="Group_314" data-name="Group 314" transform="translate(132.328 243.584)">
                <line id="Line_141" data-name="Line 141" class="cls-24" x2="96.782"/>
                <line id="Line_142" data-name="Line 142" class="cls-24" x2="96.782" transform="translate(0 14.137)"/>
                <line id="Line_143" data-name="Line 143" class="cls-24" x2="96.782" transform="translate(0 28.274)"/>
              </g>
              <line id="Line_144" data-name="Line 144" class="cls-24" x2="205.873" transform="translate(16.972 219.468)"/>
              <g id="Group_315" data-name="Group 315" transform="translate(336.175 68.071)">
                <rect id="Rectangle_136" data-name="Rectangle 136" class="cls-25" width="8.399" height="216.363"/>
                <rect id="Rectangle_137" data-name="Rectangle 137" class="cls-4" width="8.399" height="27.666" transform="translate(0 52.495)"/>
              </g>
            </g>
            <line id="Line_145" data-name="Line 145" class="cls-26" y2="71.277" transform="translate(278.337 291.737)"/>
          </g>
        </g>
      </g>
      <g id="Vector_Smart_Object-16" data-name="Vector Smart Object" transform="translate(980.133 262.445)">
        <g id="Vector_Smart_Object-17" data-name="Vector Smart Object" transform="translate(0 0)">
          <path id="Path_1165" data-name="Path 1165" class="cls-27" d="M0,0,34.577,1.247l1.247,34.577L1.247,34.577Z" transform="matrix(0.708, -0.707, 0.708, 0.707, 35.59, 24.572)"/>
          <path id="Path_1166" data-name="Path 1166" class="cls-27" d="M0,0,18.86.68l.68,18.86L.68,18.86Z" transform="matrix(0.708, -0.707, 0.708, 0.707, 0, 57.05)"/>
        </g>
      </g>
    </g>
  </g>
</svg>
